<svg width="221" height="42" viewBox="0 0 221 42" fill="none" xmlns="http://www.w3.org/2000/svg">
<path d="M10 0L20 5H4L10 0Z" fill="#B86326"/>
<path d="M211 0L201 5H217L211 0Z" fill="#B86326"/>
<path d="M10 0H211L206 29.9362C210.988 33.9474 208.151 42 201.751 42H19.2493C12.8488 42 10.0124 33.9474 15 29.9362L10 0Z" fill="url(#paint0_linear_1_9710)"/>
<path d="M68.428 25C68.3347 25 68.2553 24.9673 68.19 24.902C68.1247 24.8367 68.092 24.7573 68.092 24.664V15.55C68.092 15.4473 68.12 15.3633 68.176 15.298C68.2413 15.2327 68.3253 15.2 68.428 15.2H72.488C73.58 15.2 74.392 15.4427 74.924 15.928C75.4653 16.404 75.736 17.0573 75.736 17.888C75.736 18.3733 75.6147 18.7887 75.372 19.134C75.1387 19.47 74.8633 19.7127 74.546 19.862C74.938 20.0393 75.2647 20.3287 75.526 20.73C75.7967 21.1313 75.932 21.5887 75.932 22.102C75.932 22.97 75.638 23.67 75.05 24.202C74.4713 24.734 73.6547 25 72.6 25H68.428ZM72.236 19.218C72.7213 19.218 73.09 19.1013 73.342 18.868C73.594 18.6347 73.72 18.322 73.72 17.93C73.72 17.5287 73.594 17.2207 73.342 17.006C73.09 16.782 72.7213 16.67 72.236 16.67H70.038V19.218H72.236ZM72.376 23.516C72.8613 23.516 73.2393 23.3853 73.51 23.124C73.7807 22.8533 73.916 22.5127 73.916 22.102C73.916 21.682 73.7807 21.3413 73.51 21.08C73.2393 20.8093 72.8613 20.674 72.376 20.674H70.038V23.516H72.376ZM78.0257 25C77.9323 25 77.853 24.9673 77.7877 24.902C77.7223 24.8367 77.6897 24.7573 77.6897 24.664V15.55C77.6897 15.4473 77.7177 15.3633 77.7737 15.298C77.839 15.2327 77.923 15.2 78.0257 15.2H84.1857C84.2883 15.2 84.3723 15.2327 84.4377 15.298C84.503 15.3633 84.5357 15.4473 84.5357 15.55V16.474C84.5357 16.5767 84.503 16.6607 84.4377 16.726C84.3723 16.782 84.2883 16.81 84.1857 16.81H79.5797V19.288H83.8777C83.9803 19.288 84.0643 19.3207 84.1297 19.386C84.195 19.442 84.2277 19.5213 84.2277 19.624V20.492C84.2277 20.5947 84.195 20.6787 84.1297 20.744C84.0643 20.8 83.9803 20.828 83.8777 20.828H79.5797V23.39H84.2977C84.4003 23.39 84.4843 23.4227 84.5497 23.488C84.615 23.5533 84.6477 23.6373 84.6477 23.74V24.664C84.6477 24.7667 84.615 24.8507 84.5497 24.916C84.4843 24.972 84.4003 25 84.2977 25H78.0257ZM89.8006 25.14C88.97 25.14 88.256 25.014 87.6586 24.762C87.0613 24.51 86.6086 24.1787 86.3006 23.768C85.9926 23.3573 85.8293 22.914 85.8106 22.438C85.8106 22.354 85.8386 22.284 85.8946 22.228C85.9506 22.172 86.0206 22.144 86.1046 22.144H87.3506C87.4626 22.144 87.5466 22.1673 87.6026 22.214C87.668 22.2513 87.7286 22.3167 87.7846 22.41C87.878 22.7273 88.0926 22.9933 88.4286 23.208C88.7646 23.4227 89.222 23.53 89.8006 23.53C90.4633 23.53 90.9626 23.4227 91.2986 23.208C91.6346 22.984 91.8026 22.676 91.8026 22.284C91.8026 22.0227 91.714 21.808 91.5366 21.64C91.3686 21.472 91.112 21.3273 90.7666 21.206C90.4306 21.0847 89.9266 20.9353 89.2546 20.758C88.1533 20.4967 87.346 20.1513 86.8326 19.722C86.3286 19.2833 86.0766 18.6627 86.0766 17.86C86.0766 17.3187 86.2213 16.838 86.5106 16.418C86.8093 15.998 87.234 15.6667 87.7846 15.424C88.3446 15.1813 88.9933 15.06 89.7306 15.06C90.496 15.06 91.1586 15.1953 91.7186 15.466C92.2786 15.7367 92.7033 16.0773 92.9926 16.488C93.2913 16.8893 93.45 17.2907 93.4686 17.692C93.4686 17.776 93.4406 17.846 93.3846 17.902C93.3286 17.958 93.2586 17.986 93.1746 17.986H91.8726C91.6766 17.986 91.5413 17.8973 91.4666 17.72C91.4106 17.4213 91.224 17.174 90.9066 16.978C90.5893 16.7727 90.1973 16.67 89.7306 16.67C89.208 16.67 88.7973 16.768 88.4986 16.964C88.2 17.16 88.0506 17.4447 88.0506 17.818C88.0506 18.0793 88.1253 18.294 88.2746 18.462C88.424 18.63 88.6573 18.7793 88.9746 18.91C89.3013 19.0407 89.768 19.1853 90.3746 19.344C91.196 19.5307 91.8493 19.7407 92.3346 19.974C92.8293 20.2073 93.1933 20.5013 93.4266 20.856C93.66 21.2107 93.7766 21.6633 93.7766 22.214C93.7766 22.8113 93.6086 23.334 93.2726 23.782C92.946 24.2207 92.4793 24.5567 91.8726 24.79C91.2753 25.0233 90.5846 25.14 89.8006 25.14ZM97.7637 25C97.6704 25 97.591 24.9673 97.5257 24.902C97.4604 24.8367 97.4277 24.7573 97.4277 24.664V16.922H94.8377C94.7444 16.922 94.665 16.8893 94.5997 16.824C94.5344 16.7587 94.5017 16.6793 94.5017 16.586V15.55C94.5017 15.4473 94.5297 15.3633 94.5857 15.298C94.651 15.2327 94.735 15.2 94.8377 15.2H101.978C102.08 15.2 102.164 15.2327 102.23 15.298C102.295 15.3633 102.328 15.4473 102.328 15.55V16.586C102.328 16.6793 102.295 16.7587 102.23 16.824C102.164 16.8893 102.08 16.922 101.978 16.922H99.4017V24.664C99.4017 24.7573 99.369 24.8367 99.3037 24.902C99.2384 24.9673 99.1544 25 99.0517 25H97.7637ZM106.942 25C106.848 25 106.769 24.9673 106.704 24.902C106.638 24.8367 106.606 24.7573 106.606 24.664V15.55C106.606 15.4473 106.634 15.3633 106.69 15.298C106.755 15.2327 106.839 15.2 106.942 15.2H111.002C112.094 15.2 112.906 15.4427 113.438 15.928C113.979 16.404 114.25 17.0573 114.25 17.888C114.25 18.3733 114.128 18.7887 113.886 19.134C113.652 19.47 113.377 19.7127 113.06 19.862C113.452 20.0393 113.778 20.3287 114.04 20.73C114.31 21.1313 114.446 21.5887 114.446 22.102C114.446 22.97 114.152 23.67 113.564 24.202C112.985 24.734 112.168 25 111.114 25H106.942ZM110.75 19.218C111.235 19.218 111.604 19.1013 111.856 18.868C112.108 18.6347 112.234 18.322 112.234 17.93C112.234 17.5287 112.108 17.2207 111.856 17.006C111.604 16.782 111.235 16.67 110.75 16.67H108.552V19.218H110.75ZM110.89 23.516C111.375 23.516 111.753 23.3853 112.024 23.124C112.294 22.8533 112.43 22.5127 112.43 22.102C112.43 21.682 112.294 21.3413 112.024 21.08C111.753 20.8093 111.375 20.674 110.89 20.674H108.552V23.516H110.89ZM119.969 25.14C118.7 25.14 117.711 24.818 117.001 24.174C116.292 23.53 115.919 22.5733 115.881 21.304C115.872 21.0333 115.867 20.6367 115.867 20.114C115.867 19.582 115.872 19.1807 115.881 18.91C115.919 17.6687 116.301 16.7167 117.029 16.054C117.757 15.3913 118.737 15.06 119.969 15.06C121.201 15.06 122.181 15.3913 122.909 16.054C123.647 16.7167 124.034 17.6687 124.071 18.91C124.09 19.4513 124.099 19.8527 124.099 20.114C124.099 20.366 124.09 20.7627 124.071 21.304C124.025 22.5733 123.647 23.53 122.937 24.174C122.228 24.818 121.239 25.14 119.969 25.14ZM119.969 23.53C120.595 23.53 121.094 23.3433 121.467 22.97C121.841 22.5873 122.041 22.0087 122.069 21.234C122.088 20.674 122.097 20.296 122.097 20.1C122.097 19.8853 122.088 19.5073 122.069 18.966C122.041 18.1913 121.841 17.6173 121.467 17.244C121.094 16.8613 120.595 16.67 119.969 16.67C119.353 16.67 118.859 16.8613 118.485 17.244C118.112 17.6173 117.911 18.1913 117.883 18.966C117.874 19.2367 117.869 19.6147 117.869 20.1C117.869 20.576 117.874 20.954 117.883 21.234C117.911 22.0087 118.107 22.5873 118.471 22.97C118.845 23.3433 119.344 23.53 119.969 23.53ZM126.274 25C126.18 25 126.101 24.9673 126.036 24.902C125.97 24.8367 125.938 24.7573 125.938 24.664V15.55C125.938 15.4473 125.966 15.3633 126.022 15.298C126.087 15.2327 126.171 15.2 126.274 15.2H127.352C127.464 15.2 127.548 15.2233 127.604 15.27C127.66 15.3073 127.711 15.3587 127.758 15.424L131.79 21.696V15.55C131.79 15.4473 131.818 15.3633 131.874 15.298C131.939 15.2327 132.023 15.2 132.126 15.2H133.302C133.404 15.2 133.488 15.2327 133.554 15.298C133.619 15.3633 133.652 15.4473 133.652 15.55V24.65C133.652 24.7527 133.619 24.8367 133.554 24.902C133.488 24.9673 133.409 25 133.316 25H132.224C132.065 25 131.93 24.9253 131.818 24.776L127.8 18.644V24.664C127.8 24.7667 127.767 24.8507 127.702 24.916C127.636 24.972 127.552 25 127.45 25H126.274ZM139.742 25.14C138.482 25.14 137.502 24.818 136.802 24.174C136.102 23.53 135.752 22.5547 135.752 21.248V15.55C135.752 15.4473 135.78 15.3633 135.836 15.298C135.901 15.2327 135.985 15.2 136.088 15.2H137.362C137.465 15.2 137.544 15.2327 137.6 15.298C137.665 15.3633 137.698 15.4473 137.698 15.55V21.248C137.698 21.9947 137.875 22.5593 138.23 22.942C138.585 23.3153 139.089 23.502 139.742 23.502C140.395 23.502 140.895 23.3153 141.24 22.942C141.595 22.5593 141.772 21.9947 141.772 21.248V15.55C141.772 15.4473 141.805 15.3633 141.87 15.298C141.935 15.2327 142.019 15.2 142.122 15.2H143.382C143.485 15.2 143.564 15.2327 143.62 15.298C143.685 15.3633 143.718 15.4473 143.718 15.55V21.248C143.718 22.5547 143.368 23.53 142.668 24.174C141.977 24.818 141.002 25.14 139.742 25.14ZM149.219 25.14C148.388 25.14 147.674 25.014 147.077 24.762C146.479 24.51 146.027 24.1787 145.719 23.768C145.411 23.3573 145.247 22.914 145.229 22.438C145.229 22.354 145.257 22.284 145.313 22.228C145.369 22.172 145.439 22.144 145.523 22.144H146.769C146.881 22.144 146.965 22.1673 147.021 22.214C147.086 22.2513 147.147 22.3167 147.203 22.41C147.296 22.7273 147.511 22.9933 147.847 23.208C148.183 23.4227 148.64 23.53 149.219 23.53C149.881 23.53 150.381 23.4227 150.717 23.208C151.053 22.984 151.221 22.676 151.221 22.284C151.221 22.0227 151.132 21.808 150.955 21.64C150.787 21.472 150.53 21.3273 150.185 21.206C149.849 21.0847 149.345 20.9353 148.673 20.758C147.571 20.4967 146.764 20.1513 146.251 19.722C145.747 19.2833 145.495 18.6627 145.495 17.86C145.495 17.3187 145.639 16.838 145.929 16.418C146.227 15.998 146.652 15.6667 147.203 15.424C147.763 15.1813 148.411 15.06 149.149 15.06C149.914 15.06 150.577 15.1953 151.137 15.466C151.697 15.7367 152.121 16.0773 152.411 16.488C152.709 16.8893 152.868 17.2907 152.887 17.692C152.887 17.776 152.859 17.846 152.803 17.902C152.747 17.958 152.677 17.986 152.593 17.986H151.291C151.095 17.986 150.959 17.8973 150.885 17.72C150.829 17.4213 150.642 17.174 150.325 16.978C150.007 16.7727 149.615 16.67 149.149 16.67C148.626 16.67 148.215 16.768 147.917 16.964C147.618 17.16 147.469 17.4447 147.469 17.818C147.469 18.0793 147.543 18.294 147.693 18.462C147.842 18.63 148.075 18.7793 148.393 18.91C148.719 19.0407 149.186 19.1853 149.793 19.344C150.614 19.5307 151.267 19.7407 151.753 19.974C152.247 20.2073 152.611 20.5013 152.845 20.856C153.078 21.2107 153.195 21.6633 153.195 22.214C153.195 22.8113 153.027 23.334 152.691 23.782C152.364 24.2207 151.897 24.5567 151.291 24.79C150.693 25.0233 150.003 25.14 149.219 25.14Z" fill="white"/>
<defs>
<linearGradient id="paint0_linear_1_9710" x1="110.5" y1="0" x2="110.5" y2="42" gradientUnits="userSpaceOnUse">
<stop stop-color="#FF8B36"/>
<stop offset="1" stop-color="#FF630B"/>
</linearGradient>
</defs>
</svg>
